<svg xmlns="http://www.w3.org/2000/svg" viewBox="0 0 200 200" fill="#111111" role="img"><defs><mask id="siegel-cinar-rundm" maskUnits="userSpaceOnUse" x="0" y="0" width="200" height="200"><circle cx="100" cy="100" r="96" fill="#fff"/><g transform="translate(100 100) scale(.74) translate(-100 -96)"><circle cx="100.0" cy="72.0" r="62.0" fill="#000"/><path d="M100,114 V68" fill="none" stroke="#fff" stroke-width="6" stroke-linecap="round"/><path d="M100,68 L84,48" fill="none" stroke="#fff" stroke-width="6" stroke-linecap="round"/><path d="M100,68 L116,46" fill="none" stroke="#fff" stroke-width="6" stroke-linecap="round"/><path d="M100,88 L82,74" fill="none" stroke="#fff" stroke-width="6" stroke-linecap="round"/><g transform="translate(100 182) scale(.8) translate(-100 -182)" fill="#000" stroke="#fff" stroke-width="11" stroke-linejoin="round" paint-order="stroke"><path d="M68,66 H132 C131,82 121,90 121,104 C121,120 131,130 131,142 C131,151 126,155 118,155 H82 C74,155 69,151 69,142 C69,130 79,120 79,104 C79,90 69,82 68,66 Z"/><path d="M38,160 C70,157 130,157 162,160 C160,165 150,168 136,169 C134,176 128,180 100,180 C72,180 66,176 64,169 C50,168 40,165 38,160 Z"/></g></g></mask></defs><circle cx="100" cy="100" r="96" mask="url(#siegel-cinar-rundm)"/></svg>
